<svg width="118" height="13" viewBox="0 0 118 13" fill="none" xmlns="http://www.w3.org/2000/svg">
<g id="Apply on Timesjobs">
<path id="Vector" d="M114.496 10.156C113.846 10.156 113.3 10.0477 112.858 9.831C112.416 9.60567 112.026 9.298 111.688 8.908L112.702 7.92C112.953 8.206 113.226 8.43133 113.521 8.596C113.824 8.76067 114.171 8.843 114.561 8.843C114.96 8.843 115.246 8.77367 115.419 8.635C115.601 8.49633 115.692 8.30567 115.692 8.063C115.692 7.86367 115.627 7.70767 115.497 7.595C115.376 7.47367 115.163 7.39133 114.86 7.348L114.184 7.257C113.447 7.16167 112.884 6.95367 112.494 6.633C112.113 6.30367 111.922 5.827 111.922 5.203C111.922 4.87367 111.983 4.579 112.104 4.319C112.225 4.05033 112.399 3.825 112.624 3.643C112.849 3.45233 113.118 3.30933 113.43 3.214C113.751 3.11 114.106 3.058 114.496 3.058C114.825 3.058 115.116 3.084 115.367 3.136C115.627 3.17933 115.861 3.24867 116.069 3.344C116.277 3.43067 116.468 3.54333 116.641 3.682C116.814 3.812 116.983 3.95933 117.148 4.124L116.173 5.099C115.974 4.891 115.735 4.71767 115.458 4.579C115.181 4.44033 114.877 4.371 114.548 4.371C114.184 4.371 113.92 4.436 113.755 4.566C113.599 4.696 113.521 4.865 113.521 5.073C113.521 5.29833 113.586 5.47167 113.716 5.593C113.855 5.70567 114.084 5.788 114.405 5.84L115.094 5.931C116.559 6.139 117.291 6.80633 117.291 7.933C117.291 8.26233 117.222 8.56567 117.083 8.843C116.953 9.11167 116.767 9.34567 116.524 9.545C116.281 9.73567 115.987 9.88733 115.64 10C115.302 10.104 114.921 10.156 114.496 10.156Z" fill="#02B875"/>
<path id="Vector_2" d="M104.478 0.380005H106.142V4.332H106.194C106.315 3.942 106.545 3.63434 106.883 3.409C107.221 3.175 107.615 3.058 108.066 3.058C108.933 3.058 109.591 3.36567 110.042 3.981C110.501 4.58767 110.731 5.45867 110.731 6.594C110.731 7.738 110.501 8.61767 110.042 9.233C109.591 9.84834 108.933 10.156 108.066 10.156C107.615 10.156 107.221 10.039 106.883 9.80501C106.554 9.571 106.324 9.259 106.194 8.869H106.142V10H104.478V0.380005ZM107.533 8.778C107.966 8.778 108.317 8.635 108.586 8.349C108.855 8.063 108.989 7.67734 108.989 7.19201V6.022C108.989 5.53667 108.855 5.151 108.586 4.865C108.317 4.57034 107.966 4.423 107.533 4.423C107.134 4.423 106.801 4.52267 106.532 4.722C106.272 4.92134 106.142 5.18567 106.142 5.515V7.67301C106.142 8.02834 106.272 8.30134 106.532 8.492C106.801 8.68267 107.134 8.778 107.533 8.778Z" fill="#02B875"/>
<path id="Vector_3" d="M99.8438 10.156C99.3584 10.156 98.9207 10.0737 98.5307 9.909C98.1494 9.74433 97.8201 9.506 97.5427 9.194C97.2741 8.882 97.0661 8.50933 96.9187 8.076C96.7714 7.634 96.6978 7.14 96.6978 6.594C96.6978 6.048 96.7714 5.55833 96.9187 5.125C97.0661 4.69167 97.2741 4.32333 97.5427 4.02C97.8201 3.708 98.1494 3.46967 98.5307 3.305C98.9207 3.14033 99.3584 3.058 99.8438 3.058C100.329 3.058 100.767 3.14033 101.157 3.305C101.547 3.46967 101.876 3.708 102.145 4.02C102.422 4.32333 102.634 4.69167 102.782 5.125C102.929 5.55833 103.003 6.048 103.003 6.594C103.003 7.14 102.929 7.634 102.782 8.076C102.634 8.50933 102.422 8.882 102.145 9.194C101.876 9.506 101.547 9.74433 101.157 9.909C100.767 10.0737 100.329 10.156 99.8438 10.156ZM99.8438 8.817C100.286 8.817 100.632 8.68267 100.884 8.414C101.135 8.14533 101.261 7.751 101.261 7.231V5.97C101.261 5.45867 101.135 5.06867 100.884 4.8C100.632 4.53133 100.286 4.397 99.8438 4.397C99.4104 4.397 99.0681 4.53133 98.8167 4.8C98.5654 5.06867 98.4398 5.45867 98.4398 5.97V7.231C98.4398 7.751 98.5654 8.14533 98.8167 8.414C99.0681 8.68267 99.4104 8.817 99.8438 8.817Z" fill="#02B875"/>
<path id="Vector_4" d="M93.56 3.214H95.224V10.819C95.224 11.391 95.081 11.8287 94.795 12.132C94.509 12.444 94.054 12.6 93.43 12.6H92.52V11.274H93.56V3.214ZM94.392 2.226C94.0454 2.226 93.794 2.148 93.638 1.992C93.4907 1.836 93.417 1.63667 93.417 1.394V1.134C93.417 0.891336 93.4907 0.692002 93.638 0.536002C93.794 0.380002 94.0454 0.302002 94.392 0.302002C94.73 0.302002 94.977 0.380002 95.133 0.536002C95.289 0.692002 95.367 0.891336 95.367 1.134V1.394C95.367 1.63667 95.289 1.836 95.133 1.992C94.977 2.148 94.73 2.226 94.392 2.226Z" fill="#02B875"/>
<path id="Vector_5" d="M89.2958 10.156C88.6458 10.156 88.0998 10.0477 87.6578 9.831C87.2158 9.60567 86.8258 9.298 86.4878 8.908L87.5018 7.92C87.7531 8.206 88.0261 8.43133 88.3208 8.596C88.6241 8.76067 88.9708 8.843 89.3608 8.843C89.7595 8.843 90.0455 8.77367 90.2188 8.635C90.4008 8.49633 90.4918 8.30567 90.4918 8.063C90.4918 7.86367 90.4268 7.70767 90.2968 7.595C90.1755 7.47367 89.9631 7.39133 89.6598 7.348L88.9838 7.257C88.2471 7.16167 87.6838 6.95367 87.2938 6.633C86.9125 6.30367 86.7218 5.827 86.7218 5.203C86.7218 4.87367 86.7825 4.579 86.9038 4.319C87.0251 4.05033 87.1985 3.825 87.4238 3.643C87.6491 3.45233 87.9178 3.30933 88.2298 3.214C88.5505 3.11 88.9058 3.058 89.2958 3.058C89.6251 3.058 89.9155 3.084 90.1668 3.136C90.4268 3.17933 90.6608 3.24867 90.8688 3.344C91.0768 3.43067 91.2675 3.54333 91.4408 3.682C91.6141 3.812 91.7831 3.95933 91.9478 4.124L90.9728 5.099C90.7735 4.891 90.5351 4.71767 90.2578 4.579C89.9805 4.44033 89.6771 4.371 89.3478 4.371C88.9838 4.371 88.7195 4.436 88.5548 4.566C88.3988 4.696 88.3208 4.865 88.3208 5.073C88.3208 5.29833 88.3858 5.47167 88.5158 5.593C88.6545 5.70567 88.8841 5.788 89.2048 5.84L89.8938 5.931C91.3585 6.139 92.0908 6.80633 92.0908 7.933C92.0908 8.26233 92.0215 8.56567 91.8828 8.843C91.7528 9.11167 91.5665 9.34567 91.3238 9.545C91.0811 9.73567 90.7865 9.88733 90.4398 10C90.1018 10.104 89.7205 10.156 89.2958 10.156Z" fill="#02B875"/>
<path id="Vector_6" d="M82.5667 10.156C82.064 10.156 81.6133 10.0737 81.2146 9.909C80.8246 9.73567 80.491 9.49733 80.2136 9.194C79.945 8.882 79.737 8.50933 79.5896 8.076C79.4423 7.634 79.3687 7.14 79.3687 6.594C79.3687 6.05667 79.438 5.57133 79.5766 5.138C79.724 4.70467 79.932 4.33633 80.2006 4.033C80.4693 3.721 80.7987 3.48267 81.1887 3.318C81.5787 3.14467 82.0206 3.058 82.5146 3.058C83.0433 3.058 83.5026 3.149 83.8926 3.331C84.2826 3.513 84.6033 3.76 84.8547 4.072C85.106 4.384 85.2923 4.748 85.4137 5.164C85.5437 5.57133 85.6087 6.009 85.6087 6.477V7.023H81.0976V7.192C81.0976 7.686 81.2363 8.08467 81.5136 8.388C81.791 8.68267 82.2026 8.83 82.7486 8.83C83.1646 8.83 83.5026 8.74333 83.7626 8.57C84.0313 8.39667 84.2696 8.17567 84.4776 7.907L85.3746 8.908C85.0973 9.298 84.716 9.60567 84.2307 9.831C83.754 10.0477 83.1993 10.156 82.5667 10.156ZM82.5406 4.306C82.0986 4.306 81.7476 4.45333 81.4876 4.748C81.2276 5.04267 81.0976 5.424 81.0976 5.892V5.996H83.8796V5.879C83.8796 5.411 83.7626 5.034 83.5286 4.748C83.3033 4.45333 82.974 4.306 82.5406 4.306Z" fill="#02B875"/>
<path id="Vector_7" d="M68.2837 10V3.214H69.9477V4.345H70.0127C70.1427 3.98967 70.3507 3.68633 70.6367 3.435C70.9227 3.18367 71.3214 3.058 71.8327 3.058C72.3007 3.058 72.7037 3.17067 73.0417 3.396C73.3797 3.62133 73.631 3.96367 73.7957 4.423H73.8217C73.943 4.04167 74.1814 3.721 74.5367 3.461C74.9007 3.19233 75.3557 3.058 75.9017 3.058C76.569 3.058 77.0804 3.28767 77.4357 3.747C77.7997 4.20633 77.9817 4.86067 77.9817 5.71V10H76.3177V5.879C76.3177 4.90833 75.9537 4.423 75.2257 4.423C75.061 4.423 74.9007 4.449 74.7447 4.501C74.5974 4.54433 74.463 4.61367 74.3417 4.709C74.229 4.79567 74.138 4.90833 74.0687 5.047C73.9994 5.177 73.9647 5.333 73.9647 5.515V10H72.3007V5.879C72.3007 4.90833 71.9367 4.423 71.2087 4.423C71.0527 4.423 70.8967 4.449 70.7407 4.501C70.5934 4.54433 70.459 4.61367 70.3377 4.709C70.225 4.79567 70.1297 4.90833 70.0517 5.047C69.9824 5.177 69.9477 5.333 69.9477 5.515V10H68.2837Z" fill="#02B875"/>
<path id="Vector_8" d="M65.5229 2.226C65.1762 2.226 64.9249 2.148 64.7689 1.992C64.6215 1.836 64.5479 1.63667 64.5479 1.394V1.134C64.5479 0.891336 64.6215 0.692002 64.7689 0.536002C64.9249 0.380002 65.1762 0.302002 65.5229 0.302002C65.8608 0.302002 66.1079 0.380002 66.2639 0.536002C66.4199 0.692002 66.4978 0.891336 66.4978 1.134V1.394C66.4978 1.63667 66.4199 1.836 66.2639 1.992C66.1079 2.148 65.8608 2.226 65.5229 2.226ZM64.6908 3.214H66.3549V10H64.6908V3.214Z" fill="#02B875"/>
<path id="Vector_9" d="M60.8159 2.447V10H59.0999V2.447H56.5259V0.926003H63.3899V2.447H60.8159Z" fill="#02B875"/>
<path id="Vector_10" d="M46.4351 10V3.214H48.0991V4.345H48.1641C48.3027 3.981 48.5194 3.67767 48.8141 3.435C49.1174 3.18367 49.5334 3.058 50.0621 3.058C50.7641 3.058 51.3014 3.28767 51.6741 3.747C52.0467 4.20633 52.2331 4.86067 52.2331 5.71V10H50.5691V5.879C50.5691 5.39367 50.4824 5.02967 50.3091 4.787C50.1357 4.54433 49.8497 4.423 49.4511 4.423C49.2777 4.423 49.1087 4.449 48.9441 4.501C48.7881 4.54433 48.6451 4.61367 48.5151 4.709C48.3937 4.79567 48.2941 4.90833 48.2161 5.047C48.1381 5.177 48.0991 5.333 48.0991 5.515V10H46.4351Z" fill="#02B875"/>
<path id="Vector_11" d="M41.8008 10.156C41.3155 10.156 40.8778 10.0737 40.4878 9.909C40.1065 9.74433 39.7771 9.506 39.4998 9.194C39.2311 8.882 39.0231 8.50933 38.8758 8.076C38.7285 7.634 38.6548 7.14 38.6548 6.594C38.6548 6.048 38.7285 5.55833 38.8758 5.125C39.0231 4.69167 39.2311 4.32333 39.4998 4.02C39.7771 3.708 40.1065 3.46967 40.4878 3.305C40.8778 3.14033 41.3155 3.058 41.8008 3.058C42.2861 3.058 42.7238 3.14033 43.1138 3.305C43.5038 3.46967 43.8331 3.708 44.1018 4.02C44.3791 4.32333 44.5915 4.69167 44.7388 5.125C44.8861 5.55833 44.9598 6.048 44.9598 6.594C44.9598 7.14 44.8861 7.634 44.7388 8.076C44.5915 8.50933 44.3791 8.882 44.1018 9.194C43.8331 9.506 43.5038 9.74433 43.1138 9.909C42.7238 10.0737 42.2861 10.156 41.8008 10.156ZM41.8008 8.817C42.2428 8.817 42.5895 8.68267 42.8408 8.414C43.0921 8.14533 43.2178 7.751 43.2178 7.231V5.97C43.2178 5.45867 43.0921 5.06867 42.8408 4.8C42.5895 4.53133 42.2428 4.397 41.8008 4.397C41.3675 4.397 41.0251 4.53133 40.7738 4.8C40.5225 5.06867 40.3968 5.45867 40.3968 5.97V7.231C40.3968 7.751 40.5225 8.14533 40.7738 8.414C41.0251 8.68267 41.3675 8.817 41.8008 8.817Z" fill="#02B875"/>
<path id="Vector_12" d="M33.3802 3.214H34.9402L32.2102 11.209C32.1236 11.4517 32.0239 11.6597 31.9112 11.833C31.8072 12.015 31.6816 12.1623 31.5342 12.275C31.3869 12.3877 31.2092 12.47 31.0012 12.522C30.7932 12.574 30.5506 12.6 30.2732 12.6H29.2722V11.274H30.4942L30.8062 10.325L28.3752 3.214H30.0262L31.2092 6.802L31.6512 8.518H31.7292L32.1972 6.802L33.3802 3.214Z" fill="#02B875"/>
<path id="Vector_13" d="M27.1518 10C26.5798 10 26.1595 9.85701 25.8908 9.571C25.6221 9.285 25.4878 8.882 25.4878 8.362V0.380005H27.1518V8.674H28.0488V10H27.1518Z" fill="#02B875"/>
<path id="Vector_14" d="M17.6929 3.214H19.3569V4.332H19.4089C19.5302 3.942 19.7599 3.63433 20.0979 3.409C20.4359 3.175 20.8302 3.058 21.2809 3.058C22.1475 3.058 22.8062 3.36567 23.2569 3.981C23.7162 4.58767 23.9459 5.45867 23.9459 6.594C23.9459 7.738 23.7162 8.61767 23.2569 9.233C22.8062 9.84833 22.1475 10.156 21.2809 10.156C20.8302 10.156 20.4359 10.039 20.0979 9.805C19.7685 9.571 19.5389 9.259 19.4089 8.869H19.3569V12.6H17.6929V3.214ZM20.7479 8.778C21.1812 8.778 21.5322 8.635 21.8009 8.349C22.0695 8.063 22.2039 7.67733 22.2039 7.192V6.022C22.2039 5.53667 22.0695 5.151 21.8009 4.865C21.5322 4.57033 21.1812 4.423 20.7479 4.423C20.3492 4.423 20.0155 4.52267 19.7469 4.722C19.4869 4.92133 19.3569 5.18567 19.3569 5.515V7.673C19.3569 8.02833 19.4869 8.30133 19.7469 8.492C20.0155 8.68267 20.3492 8.778 20.7479 8.778Z" fill="#02B875"/>
<path id="Vector_15" d="M9.89795 3.214H11.5619V4.332H11.6139C11.7353 3.942 11.9649 3.63433 12.3029 3.409C12.6409 3.175 13.0353 3.058 13.4859 3.058C14.3526 3.058 15.0113 3.36567 15.4619 3.981C15.9213 4.58767 16.1509 5.45867 16.1509 6.594C16.1509 7.738 15.9213 8.61767 15.4619 9.233C15.0113 9.84833 14.3526 10.156 13.4859 10.156C13.0353 10.156 12.6409 10.039 12.3029 9.805C11.9736 9.571 11.7439 9.259 11.6139 8.869H11.5619V12.6H9.89795V3.214ZM12.9529 8.778C13.3863 8.778 13.7373 8.635 14.0059 8.349C14.2746 8.063 14.4089 7.67733 14.4089 7.192V6.022C14.4089 5.53667 14.2746 5.151 14.0059 4.865C13.7373 4.57033 13.3863 4.423 12.9529 4.423C12.5543 4.423 12.2206 4.52267 11.9519 4.722C11.6919 4.92133 11.5619 5.18567 11.5619 5.515V7.673C11.5619 8.02833 11.6919 8.30133 11.9519 8.492C12.2206 8.68267 12.5543 8.778 12.9529 8.778Z" fill="#02B875"/>
<path id="Vector_16" d="M6.88361 10L6.15561 7.686H2.93161L2.21661 10H0.474609L3.51661 0.926003H5.64861L8.66461 10H6.88361ZM4.56961 2.486H4.50461L3.34761 6.217H5.73961L4.56961 2.486Z" fill="#02B875"/>
</g>
</svg>
