<svg width="31" height="10" viewBox="0 0 31 10" fill="none" xmlns="http://www.w3.org/2000/svg">
<g id="Share">
<path id="Vector" d="M27.8987 9.144C27.4747 9.144 27.0907 9.068 26.7467 8.916C26.4107 8.764 26.1187 8.548 25.8707 8.268C25.6307 7.98 25.4427 7.64 25.3067 7.248C25.1787 6.848 25.1147 6.4 25.1147 5.904C25.1147 5.416 25.1787 4.972 25.3067 4.572C25.4427 4.172 25.6307 3.832 25.8707 3.552C26.1187 3.264 26.4107 3.044 26.7467 2.892C27.0907 2.74 27.4747 2.664 27.8987 2.664C28.3147 2.664 28.6867 2.74 29.0147 2.892C29.3427 3.044 29.6227 3.256 29.8547 3.528C30.0867 3.792 30.2627 4.108 30.3827 4.476C30.5107 4.844 30.5747 5.248 30.5747 5.688V6.144H26.1227V6.432C26.1227 6.696 26.1627 6.944 26.2427 7.176C26.3307 7.4 26.4507 7.596 26.6027 7.764C26.7627 7.932 26.9547 8.064 27.1787 8.16C27.4107 8.256 27.6707 8.304 27.9587 8.304C28.3507 8.304 28.6907 8.212 28.9787 8.028C29.2747 7.844 29.5027 7.58 29.6627 7.236L30.3467 7.728C30.1467 8.152 29.8347 8.496 29.4107 8.76C28.9867 9.016 28.4827 9.144 27.8987 9.144ZM27.8987 3.468C27.6347 3.468 27.3947 3.516 27.1787 3.612C26.9627 3.7 26.7747 3.828 26.6147 3.996C26.4627 4.164 26.3427 4.364 26.2547 4.596C26.1667 4.82 26.1227 5.068 26.1227 5.34V5.424H29.5427V5.292C29.5427 4.74 29.3907 4.3 29.0867 3.972C28.7907 3.636 28.3947 3.468 27.8987 3.468Z" fill="#212529"/>
<path id="Vector_2" d="M21.2231 8.99998V2.80798H22.1831V3.94798H22.2431C22.3551 3.65198 22.5551 3.38798 22.8431 3.15598C23.1311 2.92398 23.5271 2.80798 24.0311 2.80798H24.4031V3.76798H23.8391C23.3191 3.76798 22.9111 3.86798 22.6151 4.06798C22.3271 4.25998 22.1831 4.50398 22.1831 4.79998V8.99998H21.2231Z" fill="#212529"/>
<path id="Vector_3" d="M19.3128 9C18.9528 9 18.6928 8.904 18.5328 8.712C18.3808 8.52 18.2848 8.28 18.2448 7.992H18.1848C18.0488 8.376 17.8248 8.664 17.5128 8.856C17.2008 9.048 16.8288 9.144 16.3968 9.144C15.7408 9.144 15.2288 8.976 14.8608 8.64C14.5008 8.304 14.3208 7.848 14.3208 7.272C14.3208 6.688 14.5328 6.24 14.9568 5.928C15.3888 5.616 16.0568 5.46 16.9608 5.46H18.1848V4.848C18.1848 4.408 18.0648 4.072 17.8248 3.84C17.5848 3.608 17.2168 3.492 16.7208 3.492C16.3448 3.492 16.0288 3.576 15.7728 3.744C15.5248 3.912 15.3168 4.136 15.1488 4.416L14.5728 3.876C14.7408 3.54 15.0088 3.256 15.3768 3.024C15.7448 2.784 16.2088 2.664 16.7688 2.664C17.5208 2.664 18.1048 2.848 18.5208 3.216C18.9368 3.584 19.1448 4.096 19.1448 4.752V8.16H19.8528V9H19.3128ZM16.5528 8.328C16.7928 8.328 17.0128 8.3 17.2128 8.244C17.4128 8.188 17.5848 8.108 17.7288 8.004C17.8728 7.9 17.9848 7.78 18.0648 7.644C18.1448 7.508 18.1848 7.36 18.1848 7.2V6.18H16.9128C16.3608 6.18 15.9568 6.26 15.7008 6.42C15.4528 6.58 15.3288 6.812 15.3288 7.116V7.368C15.3288 7.672 15.4368 7.908 15.6528 8.076C15.8768 8.244 16.1768 8.328 16.5528 8.328Z" fill="#212529"/>
<path id="Vector_4" d="M7.99268 0.119995H8.95268V3.816H9.00068C9.15268 3.464 9.36468 3.184 9.63668 2.976C9.91668 2.768 10.2887 2.664 10.7527 2.664C11.3927 2.664 11.8967 2.872 12.2647 3.288C12.6407 3.696 12.8287 4.276 12.8287 5.028V9H11.8687V5.196C11.8687 4.084 11.4007 3.528 10.4647 3.528C10.2727 3.528 10.0847 3.552 9.90068 3.6C9.72468 3.64799 9.56468 3.72 9.42068 3.816C9.27668 3.912 9.16068 4.036 9.07268 4.18799C8.99268 4.332 8.95268 4.50399 8.95268 4.70399V9H7.99268V0.119995Z" fill="#212529"/>
<path id="Vector_5" d="M3.46791 9.14398C2.78791 9.14398 2.20791 9.01598 1.72791 8.75998C1.24791 8.49598 0.839906 8.13598 0.503906 7.67998L1.24791 7.05598C1.54391 7.44798 1.87191 7.74798 2.23191 7.95598C2.59191 8.15598 3.01591 8.25598 3.50391 8.25598C4.10391 8.25598 4.55991 8.11198 4.87191 7.82398C5.19191 7.53598 5.35191 7.15198 5.35191 6.67198C5.35191 6.27198 5.23191 5.96398 4.99191 5.74798C4.75191 5.53198 4.35591 5.35998 3.80391 5.23198L3.11991 5.07598C2.35191 4.89998 1.76391 4.63598 1.35591 4.28398C0.955906 3.92398 0.755906 3.41998 0.755906 2.77198C0.755906 2.40398 0.823906 2.07598 0.959906 1.78798C1.09591 1.49998 1.28391 1.25998 1.52391 1.06798C1.77191 0.87598 2.06391 0.73198 2.39991 0.635981C2.74391 0.531981 3.11991 0.47998 3.52791 0.47998C4.15991 0.47998 4.69991 0.59598 5.14791 0.82798C5.60391 1.05998 5.98791 1.39998 6.29991 1.84798L5.54391 2.39998C5.31191 2.07998 5.03191 1.82798 4.70391 1.64398C4.37591 1.45998 3.96791 1.36798 3.47991 1.36798C2.94391 1.36798 2.51991 1.48398 2.20791 1.71598C1.90391 1.93998 1.75191 2.27998 1.75191 2.73598C1.75191 3.13598 1.87991 3.43998 2.13591 3.64798C2.39991 3.84798 2.79591 4.00798 3.32391 4.12798L4.00791 4.28398C4.83191 4.46798 5.42791 4.74798 5.79591 5.12398C6.16391 5.49998 6.34791 5.99998 6.34791 6.62398C6.34791 7.00798 6.27991 7.35598 6.14391 7.66798C6.01591 7.97998 5.82791 8.24398 5.57991 8.45998C5.33191 8.67598 5.02791 8.84398 4.66791 8.96398C4.31591 9.08398 3.91591 9.14398 3.46791 9.14398Z" fill="#212529"/>
</g>
</svg>
