<svg width="80" height="11" viewBox="0 0 80 11" fill="none" xmlns="http://www.w3.org/2000/svg">
<g id="Visit Website">
<path id="Vector" d="M76.021 10.156C77.282 10.156 78.27 9.675 78.829 8.908L77.932 7.907C77.516 8.44 77.022 8.83 76.203 8.83C75.111 8.83 74.552 8.167 74.552 7.192V7.023H79.063V6.477C79.063 4.618 78.088 3.058 75.969 3.058C73.98 3.058 72.823 4.449 72.823 6.594C72.823 8.765 74.019 10.156 76.021 10.156ZM75.995 4.306C76.853 4.306 77.334 4.943 77.334 5.879V5.996H74.552V5.892C74.552 4.956 75.124 4.306 75.995 4.306Z" fill="#E56135"/>
<path id="Vector_2" d="M70.5854 10H71.7813V8.674H70.4943V4.54H71.8853V3.214H70.4943V1.355H68.9994V2.512C68.9994 2.98 68.8433 3.214 68.3493 3.214H67.8293V4.54H68.8303V8.271C68.8303 9.376 69.4413 10 70.5854 10Z" fill="#E56135"/>
<path id="Vector_3" d="M65.7057 2.226C66.3817 2.226 66.6807 1.875 66.6807 1.394V1.134C66.6807 0.653002 66.3817 0.302002 65.7057 0.302002C65.0167 0.302002 64.7307 0.653002 64.7307 1.134V1.394C64.7307 1.875 65.0167 2.226 65.7057 2.226ZM64.8737 10H66.5377V3.214H64.8737V10Z" fill="#E56135"/>
<path id="Vector_4" d="M60.6093 10.156C62.2993 10.156 63.4043 9.246 63.4043 7.933C63.4043 6.802 62.6893 6.139 61.2073 5.931L60.5183 5.84C59.8813 5.736 59.6343 5.528 59.6343 5.073C59.6343 4.657 59.9463 4.371 60.6613 4.371C61.3243 4.371 61.8963 4.683 62.2863 5.099L63.2613 4.124C62.6113 3.448 61.9353 3.058 60.6093 3.058C59.0623 3.058 58.0353 3.89 58.0353 5.203C58.0353 6.438 58.8413 7.075 60.2973 7.257L60.9733 7.348C61.5713 7.426 61.8053 7.673 61.8053 8.063C61.8053 8.544 61.4673 8.843 60.6743 8.843C59.9073 8.843 59.3093 8.492 58.8153 7.92L57.8013 8.908C58.4773 9.688 59.3223 10.156 60.6093 10.156Z" fill="#E56135"/>
<path id="Vector_5" d="M50.5913 10H52.2553V8.869H52.3073C52.5673 9.636 53.2823 10.156 54.1793 10.156C55.8953 10.156 56.8443 8.86901 56.8443 6.594C56.8443 4.332 55.8953 3.058 54.1793 3.058C53.2823 3.058 52.5543 3.552 52.3073 4.332H52.2553V0.380005H50.5913V10ZM53.6463 8.778C52.8533 8.778 52.2553 8.37501 52.2553 7.67301V5.515C52.2553 4.852 52.8533 4.423 53.6463 4.423C54.5043 4.423 55.1023 5.06 55.1023 6.022V7.19201C55.1023 8.15401 54.5043 8.778 53.6463 8.778Z" fill="#E56135"/>
<path id="Vector_6" d="M46.0855 10.156C47.3465 10.156 48.3345 9.675 48.8935 8.908L47.9965 7.907C47.5805 8.44 47.0865 8.83 46.2675 8.83C45.1755 8.83 44.6165 8.167 44.6165 7.192V7.023H49.1275V6.477C49.1275 4.618 48.1525 3.058 46.0335 3.058C44.0445 3.058 42.8875 4.449 42.8875 6.594C42.8875 8.765 44.0835 10.156 46.0855 10.156ZM46.0595 4.306C46.9175 4.306 47.3985 4.943 47.3985 5.879V5.996H44.6165V5.892C44.6165 4.956 45.1885 4.306 46.0595 4.306Z" fill="#E56135"/>
<path id="Vector_7" d="M34.7264 10L35.8834 5.203L36.4684 2.81099H36.4944L37.0534 5.203L38.2104 10H40.1474L42.3184 0.925995H40.6804L39.7574 5.281L39.1854 8.06299H39.1464L38.5094 5.281L37.4694 0.925995H35.5714L34.5314 5.281L33.8814 8.06299H33.8424L33.2834 5.281L32.3864 0.925995H30.6704L32.7764 10H34.7264Z" fill="#E56135"/>
<path id="Vector_8" d="M25.4789 10H26.6749V8.674H25.3879V4.54H26.7789V3.214H25.3879V1.355H23.8929V2.512C23.8929 2.98 23.7369 3.214 23.2429 3.214H22.7229V4.54H23.7239V8.271C23.7239 9.376 24.3349 10 25.4789 10Z" fill="#E56135"/>
<path id="Vector_9" d="M20.5993 2.226C21.2753 2.226 21.5743 1.875 21.5743 1.394V1.134C21.5743 0.653002 21.2753 0.302002 20.5993 0.302002C19.9103 0.302002 19.6243 0.653002 19.6243 1.134V1.394C19.6243 1.875 19.9103 2.226 20.5993 2.226ZM19.7673 10H21.4313V3.214H19.7673V10Z" fill="#E56135"/>
<path id="Vector_10" d="M15.5028 10.156C17.1928 10.156 18.2978 9.246 18.2978 7.933C18.2978 6.802 17.5828 6.139 16.1008 5.931L15.4118 5.84C14.7748 5.736 14.5278 5.528 14.5278 5.073C14.5278 4.657 14.8398 4.371 15.5548 4.371C16.2178 4.371 16.7898 4.683 17.1798 5.099L18.1548 4.124C17.5048 3.448 16.8288 3.058 15.5028 3.058C13.9558 3.058 12.9288 3.89 12.9288 5.203C12.9288 6.438 13.7348 7.075 15.1908 7.257L15.8668 7.348C16.4648 7.426 16.6988 7.673 16.6988 8.063C16.6988 8.544 16.3608 8.843 15.5678 8.843C14.8008 8.843 14.2028 8.492 13.7088 7.92L12.6948 8.908C13.3708 9.688 14.2158 10.156 15.5028 10.156Z" fill="#E56135"/>
<path id="Vector_11" d="M10.5192 2.226C11.1952 2.226 11.4942 1.875 11.4942 1.394V1.134C11.4942 0.653002 11.1952 0.302002 10.5192 0.302002C9.83019 0.302002 9.54419 0.653002 9.54419 1.134V1.394C9.54419 1.875 9.83019 2.226 10.5192 2.226ZM9.68719 10H11.3512V3.214H9.68719V10Z" fill="#E56135"/>
<path id="Vector_12" d="M5.55707 10L8.52107 0.925995H6.81807L5.42707 5.34599L4.63407 8.36199H4.59507L3.78907 5.34599L2.39807 0.925995H0.643066L3.60707 10H5.55707Z" fill="#E56135"/>
</g>
</svg>
